<mxfile host="app.diagrams.net" agent="Mozilla/5.0 (Windows NT 10.0; Win64; x64) AppleWebKit/537.36 (KHTML, like Gecko) Chrome/131.0.0.0 Safari/537.36" version="26.0.8">
  <diagram name="Strona-1" id="dl2ONz-t__E32g1JoIL4">
    <mxGraphModel dx="1434" dy="772" grid="1" gridSize="10" guides="1" tooltips="1" connect="1" arrows="1" fold="1" page="1" pageScale="1" pageWidth="827" pageHeight="1169" math="0" shadow="0">
      <root>
        <mxCell id="0" />
        <mxCell id="1" parent="0" />
        <mxCell id="h--UUdGRzvqhdsNBsu8e-7" value="" style="edgeStyle=orthogonalEdgeStyle;rounded=0;orthogonalLoop=1;jettySize=auto;html=1;endArrow=block;endFill=0;" edge="1" parent="1" source="h--UUdGRzvqhdsNBsu8e-29">
          <mxGeometry relative="1" as="geometry">
            <mxPoint x="460" y="440" as="sourcePoint" />
            <mxPoint x="460" y="360" as="targetPoint" />
          </mxGeometry>
        </mxCell>
        <mxCell id="h--UUdGRzvqhdsNBsu8e-13" value="&lt;h3 style=&quot;margin-top: 0px;&quot;&gt;&lt;span style=&quot;background-color: transparent; color: light-dark(rgb(0, 0, 0), rgb(255, 255, 255));&quot;&gt;MyChronicle.Domain&lt;/span&gt;&lt;/h3&gt;&lt;div&gt;&lt;span style=&quot;background-color: transparent; color: light-dark(rgb(0, 0, 0), rgb(255, 255, 255));&quot;&gt;Zawiera modele danych aplikacji: AppUser, FamilyTree, FamilyTreePermission, Person, Filre oraz Relation&lt;/span&gt;&lt;/div&gt;" style="text;html=1;whiteSpace=wrap;overflow=hidden;rounded=0;align=right;" vertex="1" parent="1">
          <mxGeometry x="580" y="80" width="180" height="100" as="geometry" />
        </mxCell>
        <mxCell id="h--UUdGRzvqhdsNBsu8e-14" value="&lt;h3 style=&quot;margin-top: 0px;&quot;&gt;&lt;span style=&quot;background-color: transparent; color: light-dark(rgb(0, 0, 0), rgb(255, 255, 255));&quot;&gt;MyChronicle.Infrastructure&lt;/span&gt;&lt;/h3&gt;&lt;div&gt;Zawiera klasę DataContext odpowiedzialną za połączenie z bazą danych oraz pliki migracji.&lt;/div&gt;" style="text;html=1;whiteSpace=wrap;overflow=hidden;rounded=0;" vertex="1" parent="1">
          <mxGeometry x="80" y="175" width="180" height="90" as="geometry" />
        </mxCell>
        <mxCell id="h--UUdGRzvqhdsNBsu8e-15" value="&lt;h3 style=&quot;margin-top: 0px;&quot;&gt;&lt;span style=&quot;background-color: transparent; color: light-dark(rgb(0, 0, 0), rgb(255, 255, 255));&quot;&gt;MyChronicle.Application&lt;/span&gt;&lt;/h3&gt;&lt;div&gt;Zawiera definicje klas Command oraz Query dla każdego z kontrolerów wykorzystywanych w MyChronicle.API. Klasy Command oraz Query odpowiadają za wykonanie zapytań do bazy danych. Zawiera również pliki typu Data Transfer Object.&lt;/div&gt;" style="text;html=1;whiteSpace=wrap;overflow=hidden;rounded=0;align=right;" vertex="1" parent="1">
          <mxGeometry x="580" y="255" width="180" height="170" as="geometry" />
        </mxCell>
        <mxCell id="h--UUdGRzvqhdsNBsu8e-16" value="&lt;h3 style=&quot;margin-top: 0px;&quot;&gt;&lt;span style=&quot;background-color: transparent; color: light-dark(rgb(0, 0, 0), rgb(255, 255, 255));&quot;&gt;MyChronicle.API&lt;/span&gt;&lt;/h3&gt;&lt;div&gt;&lt;span style=&quot;background-color: transparent; color: light-dark(rgb(0, 0, 0), rgb(255, 255, 255));&quot;&gt;Zawiera kontrolery odpowiadające za poszczególne elementy systemu: FamilyTree, Person, FIle, Relation oraz kontroller Account odpowiadający za autentykację użytkownika. Umieszczone są tu również serwisy odpowiadające za identyfikację użytkownika oraz podawanie tokenów. Dodatkowo, pakiet zawiera konfigurację API oraz główny plik programu (Program.cs).&lt;/span&gt;&lt;/div&gt;" style="text;html=1;whiteSpace=wrap;overflow=hidden;rounded=0;" vertex="1" parent="1">
          <mxGeometry x="80" y="330" width="240" height="190" as="geometry" />
        </mxCell>
        <mxCell id="h--UUdGRzvqhdsNBsu8e-18" style="edgeStyle=orthogonalEdgeStyle;rounded=0;orthogonalLoop=1;jettySize=auto;html=1;entryX=0.5;entryY=1;entryDx=0;entryDy=0;dashed=1;" edge="1" parent="1" source="h--UUdGRzvqhdsNBsu8e-17">
          <mxGeometry relative="1" as="geometry">
            <mxPoint x="460" y="480" as="targetPoint" />
          </mxGeometry>
        </mxCell>
        <mxCell id="h--UUdGRzvqhdsNBsu8e-17" value="Client" style="html=1;whiteSpace=wrap;" vertex="1" parent="1">
          <mxGeometry x="360" y="640" width="200" height="40" as="geometry" />
        </mxCell>
        <mxCell id="h--UUdGRzvqhdsNBsu8e-20" value="MyChronicle.Domain" style="shape=folder;fontStyle=1;spacingTop=10;tabWidth=40;tabHeight=10;tabPosition=left;html=1;whiteSpace=wrap;" vertex="1" parent="1">
          <mxGeometry x="360" y="80" width="200" height="40" as="geometry" />
        </mxCell>
        <mxCell id="h--UUdGRzvqhdsNBsu8e-22" value="MyChronicle.Infrastructure" style="shape=folder;fontStyle=1;spacingTop=10;tabWidth=40;tabHeight=10;tabPosition=left;html=1;whiteSpace=wrap;" vertex="1" parent="1">
          <mxGeometry x="280" y="200" width="200" height="40" as="geometry" />
        </mxCell>
        <mxCell id="h--UUdGRzvqhdsNBsu8e-24" value="" style="edgeStyle=orthogonalEdgeStyle;rounded=0;orthogonalLoop=1;jettySize=auto;html=1;endArrow=block;endFill=0;entryX=0.2;entryY=1;entryDx=0;entryDy=0;entryPerimeter=0;exitX=0;exitY=0;exitDx=120;exitDy=10;exitPerimeter=0;" edge="1" parent="1" source="h--UUdGRzvqhdsNBsu8e-22" target="h--UUdGRzvqhdsNBsu8e-20">
          <mxGeometry relative="1" as="geometry">
            <mxPoint x="420" y="330" as="sourcePoint" />
            <mxPoint x="420" y="250" as="targetPoint" />
            <Array as="points">
              <mxPoint x="400" y="160" />
              <mxPoint x="400" y="160" />
            </Array>
          </mxGeometry>
        </mxCell>
        <mxCell id="h--UUdGRzvqhdsNBsu8e-26" value="" style="edgeStyle=orthogonalEdgeStyle;rounded=0;orthogonalLoop=1;jettySize=auto;html=1;endArrow=block;endFill=0;" edge="1" parent="1" source="h--UUdGRzvqhdsNBsu8e-25" target="h--UUdGRzvqhdsNBsu8e-22">
          <mxGeometry relative="1" as="geometry">
            <Array as="points">
              <mxPoint x="400" y="260" />
              <mxPoint x="400" y="260" />
            </Array>
          </mxGeometry>
        </mxCell>
        <mxCell id="h--UUdGRzvqhdsNBsu8e-25" value="MyChronicle.Application" style="shape=folder;fontStyle=1;spacingTop=10;tabWidth=40;tabHeight=10;tabPosition=left;html=1;whiteSpace=wrap;" vertex="1" parent="1">
          <mxGeometry x="360" y="320" width="200" height="40" as="geometry" />
        </mxCell>
        <mxCell id="h--UUdGRzvqhdsNBsu8e-28" style="edgeStyle=orthogonalEdgeStyle;rounded=0;orthogonalLoop=1;jettySize=auto;html=1;entryX=0.8;entryY=0.925;entryDx=0;entryDy=0;entryPerimeter=0;endArrow=block;endFill=0;" edge="1" parent="1">
          <mxGeometry relative="1" as="geometry">
            <mxPoint x="520" y="323" as="sourcePoint" />
            <mxPoint x="520" y="120" as="targetPoint" />
            <Array as="points">
              <mxPoint x="520" y="263" />
              <mxPoint x="520" y="263" />
            </Array>
          </mxGeometry>
        </mxCell>
        <mxCell id="h--UUdGRzvqhdsNBsu8e-29" value="MyChronicle.API" style="shape=folder;fontStyle=1;spacingTop=10;tabWidth=40;tabHeight=10;tabPosition=left;html=1;whiteSpace=wrap;" vertex="1" parent="1">
          <mxGeometry x="360" y="440" width="200" height="40" as="geometry" />
        </mxCell>
        <mxCell id="h--UUdGRzvqhdsNBsu8e-33" value="MyChronicleApp" style="shape=umlFrame;whiteSpace=wrap;html=1;pointerEvents=0;width=160;height=30;" vertex="1" parent="1">
          <mxGeometry x="40" y="40" width="760" height="520" as="geometry" />
        </mxCell>
      </root>
    </mxGraphModel>
  </diagram>
</mxfile>
